<svg xmlns="http://www.w3.org/2000/svg" width="600" height="300" viewBox="0 0 600 300" font-family="Georgia, serif"><rect width="600" height="300" fill="#FCFBF8"/><text x="300" y="38" font-size="20" fill="#1B3A5C" text-anchor="middle" font-weight="bold">Charge — a fixed braid of the two strands</text><text x="300" y="60" font-size="13" fill="#666666" text-anchor="middle" font-weight="normal">how many times they wind = the charge (a whole number)</text><polyline points="80,150.0 83,150.0 86,150.0 89,150.0 92,150.0 95,150.0 98,150.0 101,150.0 104,150.0 107,150.0 110,150.0 113,150.0 116,150.0 119,150.0 122,150.0 125,150.0 128,150.0 131,150.0 134,150.0 137,150.0 140,150.0 143,150.0 146,150.0 149,150.0 152,150.0 155,150.0 158,150.0 161,150.0 164,150.0 167,150.0 170,150.0 173,150.0 176,150.0 179,150.0 182,150.0 185,150.0 188,150.0 191,150.0 194,150.0 197,150.0 200,150.0 203,150.0 206,150.0 209,150.0 212,150.0 215,150.0 218,150.0" fill="none" stroke="#1B3A5C" stroke-width="2.5"/><polyline points="80,150.0 83,150.0 86,150.0 89,150.0 92,150.0 95,150.0 98,150.0 101,150.0 104,150.0 107,150.0 110,150.0 113,150.0 116,150.0 119,150.0 122,150.0 125,150.0 128,150.0 131,150.0 134,150.0 137,150.0 140,150.0 143,150.0 146,150.0 149,150.0 152,150.0 155,150.0 158,150.0 161,150.0 164,150.0 167,150.0 170,150.0 173,150.0 176,150.0 179,150.0 182,150.0 185,150.0 188,150.0 191,150.0 194,150.0 197,150.0 200,150.0 203,150.0 206,150.0 209,150.0 212,150.0 215,150.0 218,150.0" fill="none" stroke="#B5651D" stroke-width="2.5"/><circle cx="80" cy="150" r="5" fill="#666666"/><circle cx="220" cy="150" r="5" fill="#666666"/><text x="150" y="208" font-size="14" fill="#1B3A5C" text-anchor="middle" font-weight="bold">neutral (0 wraps)</text><polyline points="250,150.0 253,147.04686815201157 256,144.14718939753314 259,141.35344930361367 262,138.71621589707007 265,136.28322435910786 268,134.0985129957974 271,132.20162612375117 274,130.62689829915178 277,129.4028328459258 280,128.55158593199988 283,128.08856553210475 286,128.02215253609108 289,128.35354905083014 292,129.07675664150662 295,130.17868490614677 298,131.63938841813135 301,133.43242774792057 304,135.52534802932632 307,137.88026640805373 310,140.45455773941373 313,143.20162612375117 316,146.07174831442998 319,149.01297373228866 322,151.97206479587553 325,154.8954605470389 328,157.73024612978955 331,160.42511057440598 334,162.9312755504344 337,165.203378277711 340,167.20029261429664 343,168.88587345924105 346,170.22961099613192 349,171.20718293530877 352,171.80089475889457 355,172.0 358,171.80089475889457 361,171.20718293530877 364,170.22961099613192 367,168.88587345924105 370,167.20029261429664 373,165.20337827771104 376,162.9312755504344 379,160.42511057440598 382,157.73024612978955 385,154.8954605470389 388,151.97206479587555" fill="none" stroke="#1B3A5C" stroke-width="2.5"/><polyline points="250,150.0 253,152.95313184798843 256,155.85281060246686 259,158.64655069638633 262,161.28378410292993 265,163.71677564089214 268,165.9014870042026 271,167.79837387624883 274,169.37310170084822 277,170.5971671540742 280,171.44841406800012 283,171.91143446789525 286,171.97784746390892 289,171.64645094916986 292,170.92324335849338 295,169.82131509385323 298,168.36061158186865 301,166.56757225207943 304,164.47465197067368 307,162.11973359194627 310,159.54544226058627 313,156.79837387624883 316,153.92825168557002 319,150.98702626771134 322,148.02793520412447 325,145.1045394529611 328,142.26975387021045 331,139.57488942559402 334,137.0687244495656 337,134.796621722289 340,132.79970738570336 343,131.11412654075895 346,129.77038900386808 349,128.79281706469123 352,128.19910524110543 355,128.0 358,128.19910524110543 361,128.79281706469123 364,129.77038900386808 367,131.11412654075895 370,132.79970738570336 373,134.79662172228896 376,137.0687244495656 379,139.57488942559402 382,142.26975387021045 385,145.1045394529611 388,148.02793520412445" fill="none" stroke="#B5651D" stroke-width="2.5"/><circle cx="250" cy="150" r="5" fill="#666666"/><circle cx="390" cy="150" r="5" fill="#666666"/><text x="320" y="208" font-size="14" fill="#1B3A5C" text-anchor="middle" font-weight="bold">charge 1 (1 wrap)</text><polyline points="410,150.0 413,144.14718939753314 416,138.71621589707007 419,134.0985129957974 422,130.62689829915178 425,128.55158593199988 428,128.02215253609108 431,129.07675664150662 434,131.63938841813135 437,135.52534802932632 440,140.45455773941373 443,146.07174831442998 446,151.97206479587553 449,157.73024612978955 452,162.9312755504344 455,167.20029261429664 458,170.22961099613192 461,171.80089475889457 464,171.80089475889457 467,170.22961099613192 470,167.20029261429664 473,162.9312755504344 476,157.73024612978955 479,151.97206479587555 482,146.07174831443 485,140.45455773941373 488,135.52534802932632 491,131.63938841813135 494,129.07675664150662 497,128.02215253609108 500,128.55158593199988 503,130.62689829915178 506,134.0985129957974 509,138.71621589707007 512,144.14718939753314 515,150.0 518,155.85281060246683 521,161.28378410292993 524,165.9014870042026 527,169.37310170084822 530,171.44841406800012 533,171.97784746390892 536,170.92324335849338 539,168.36061158186865 542,164.47465197067368 545,159.5454422605863 548,153.92825168557002" fill="none" stroke="#1B3A5C" stroke-width="2.5"/><polyline points="410,150.0 413,155.85281060246686 416,161.28378410292993 419,165.9014870042026 422,169.37310170084822 425,171.44841406800012 428,171.97784746390892 431,170.92324335849338 434,168.36061158186865 437,164.47465197067368 440,159.54544226058627 443,153.92825168557002 446,148.02793520412447 449,142.26975387021045 452,137.0687244495656 455,132.79970738570336 458,129.77038900386808 461,128.19910524110543 464,128.19910524110543 467,129.77038900386808 470,132.79970738570336 473,137.0687244495656 476,142.26975387021045 479,148.02793520412445 482,153.92825168557 485,159.54544226058627 488,164.47465197067368 491,168.36061158186865 494,170.92324335849338 497,171.97784746390892 500,171.44841406800012 503,169.37310170084822 506,165.9014870042026 509,161.28378410292993 512,155.85281060246686 515,150.0 518,144.14718939753317 521,138.71621589707007 524,134.0985129957974 527,130.62689829915178 530,128.55158593199988 533,128.02215253609108 536,129.07675664150662 539,131.63938841813135 542,135.52534802932632 545,140.4545577394137 548,146.07174831442998" fill="none" stroke="#B5651D" stroke-width="2.5"/><circle cx="410" cy="150" r="5" fill="#666666"/><circle cx="550" cy="150" r="5" fill="#666666"/><text x="480" y="208" font-size="14" fill="#1B3A5C" text-anchor="middle" font-weight="bold">charge 2 (2 wraps)</text><text x="300" y="250" font-size="12" fill="#666666" text-anchor="middle" font-weight="normal" font-style="italic">You cannot have half a wrap and still have closed strands — which is why</text><text x="300" y="266" font-size="12" fill="#666666" text-anchor="middle" font-weight="normal" font-style="italic">charge comes only in whole units. More charge = more wraps, never bigger ones.</text></svg>