<svg xmlns="http://www.w3.org/2000/svg" width="600" height="340" viewBox="0 0 600 340" font-family="Georgia, serif"><rect width="600" height="340" fill="#FCFBF8"/><text x="300" y="34" font-size="19" fill="#1B3A5C" text-anchor="middle" font-weight="bold">Chemistry — standing-wave shells around a nucleus</text><text x="300" y="55" font-size="12" fill="#666666" text-anchor="middle" font-weight="normal">electrons are standing vibration patterns of the ropes, like notes on a string</text><circle cx="300" cy="195" r="16" fill="#7B2D26" stroke="#1B3A5C" stroke-width="2"/><text x="300" y="200" font-size="9" fill="#FCFBF8" text-anchor="middle" font-weight="bold">nucleus</text><polyline points="352.0,195.0 355.0,198.8 356.8,203.0 356.7,207.1 354.5,210.6 350.8,213.5 346.4,215.6 342.2,217.5 339.2,219.5 337.5,222.2 336.9,225.9 336.8,230.5 336.4,235.5 335.1,239.9 332.4,243.1 328.6,244.5 324.0,244.3 319.3,242.8 315.0,241.1 311.2,240.1 308.0,240.4 305.0,242.3 301.8,245.3 298.1,248.6 294.1,251.1 289.9,252.0 286.1,250.9 282.8,247.8 280.4,243.6 278.4,239.2 276.6,235.5 274.3,233.1 271.0,232.1 266.8,231.8 262.0,231.7 257.2,230.9 253.3,228.9 251.0,225.6 250.4,221.4 251.4,216.7 253.1,212.1 254.6,208.0 255.0,204.6 253.8,201.5 251.3,198.4 248.0,195.0 245.0,191.2 243.2,187.0 243.3,182.9 245.5,179.4 249.2,176.5 253.6,174.4 257.8,172.5 260.8,170.5 262.5,167.8 263.1,164.1 263.2,159.5 263.6,154.5 264.9,150.1 267.6,146.9 271.4,145.5 276.0,145.7 280.7,147.2 285.0,148.9 288.8,149.9 292.0,149.6 295.0,147.7 298.2,144.7 301.9,141.4 305.9,138.9 310.1,138.0 313.9,139.1 317.2,142.2 319.6,146.4 321.6,150.8 323.4,154.5 325.7,156.9 329.0,157.9 333.2,158.2 338.0,158.3 342.8,159.1 346.7,161.1 349.0,164.4 349.6,168.6 348.6,173.3 346.9,177.9 345.4,182.0 345.0,185.4 346.2,188.5 348.7,191.6 352.0,195.0" fill="none" stroke="#1B3A5C" stroke-width="2"/><text x="364" y="141" font-size="10" fill="#1B3A5C" text-anchor="start" font-weight="normal">2n²=2</text><polyline points="384.0,195.0 388.2,201.2 389.1,207.5 385.6,213.2 379.5,217.8 374.1,222.0 371.5,226.8 372.0,233.3 373.3,240.8 372.6,247.7 368.3,252.3 361.3,254.2 353.8,254.8 348.0,256.5 344.5,260.9 342.0,267.7 338.8,274.5 333.7,278.4 327.0,278.2 320.0,275.3 313.7,272.6 308.2,272.9 302.8,276.5 297.0,281.4 290.6,284.2 284.5,282.8 279.4,277.7 275.1,271.5 270.8,267.4 265.1,266.5 258.0,267.7 250.5,268.3 244.6,265.9 241.4,260.0 240.5,252.5 239.6,245.7 236.7,241.0 230.8,238.2 223.7,235.6 218.0,231.5 216.2,225.5 218.1,218.5 221.3,211.7 222.7,205.9 220.7,200.5 216.0,195.0 211.8,188.8 210.9,182.5 214.4,176.8 220.5,172.2 225.9,168.0 228.5,163.2 228.0,156.7 226.7,149.2 227.4,142.3 231.7,137.7 238.7,135.8 246.2,135.2 252.0,133.5 255.5,129.1 258.0,122.3 261.2,115.5 266.3,111.6 273.0,111.8 280.0,114.7 286.3,117.4 291.8,117.1 297.2,113.5 303.0,108.6 309.4,105.8 315.5,107.2 320.6,112.3 324.9,118.5 329.2,122.6 334.9,123.5 342.0,122.3 349.5,121.7 355.4,124.1 358.6,130.0 359.5,137.5 360.4,144.3 363.3,149.0 369.2,151.8 376.3,154.4 382.0,158.5 383.8,164.5 381.9,171.5 378.7,178.3 377.3,184.1 379.3,189.5 384.0,195.0" fill="none" stroke="#B5651D" stroke-width="2"/><text x="396" y="109" font-size="10" fill="#B5651D" text-anchor="start" font-weight="normal">2n²=8</text><polyline points="416.0,195.0 421.1,203.5 419.6,211.8 412.2,218.9 405.9,225.4 405.4,233.4 408.2,243.2 407.7,252.3 400.8,258.0 391.0,261.1 384.3,265.8 382.3,274.4 380.6,284.5 374.8,290.8 365.1,291.5 355.4,291.0 348.7,294.8 343.8,303.3 337.6,310.7 329.1,311.6 319.8,307.2 311.5,304.4 303.9,307.8 295.8,314.1 287.3,316.3 279.5,311.3 272.9,303.5 265.9,299.9 256.9,301.8 247.0,303.7 239.4,300.0 235.4,290.8 232.0,282.0 225.4,277.9 215.4,276.7 206.6,273.4 203.3,265.3 204.0,255.0 202.9,246.6 196.3,241.2 187.4,236.0 182.9,228.6 185.3,219.4 189.8,210.5 189.7,202.7 184.0,195.0 178.9,186.5 180.4,178.2 187.8,171.1 194.1,164.6 194.6,156.6 191.8,146.8 192.3,137.7 199.2,132.0 209.0,128.9 215.7,124.2 217.7,115.6 219.4,105.5 225.2,99.2 234.9,98.5 244.6,99.0 251.3,95.2 256.2,86.7 262.4,79.3 270.9,78.4 280.2,82.8 288.5,85.6 296.1,82.2 304.2,75.9 312.7,73.7 320.5,78.7 327.1,86.5 334.1,90.1 343.1,88.2 353.0,86.3 360.6,90.0 364.6,99.2 368.0,108.0 374.6,112.1 384.6,113.3 393.4,116.6 396.7,124.7 396.0,135.0 397.1,143.4 403.7,148.8 412.6,154.0 417.1,161.4 414.7,170.6 410.2,179.5 410.3,187.3 416.0,195.0" fill="none" stroke="#1F5C5C" stroke-width="2"/><text x="428" y="77" font-size="10" fill="#1F5C5C" text-anchor="start" font-weight="normal">2n²=18</text><text x="300" y="300" font-size="11" fill="#666666" text-anchor="middle" font-weight="normal" font-style="italic">Each ring is a standing wave that fits a whole number of humps around the nucleus — only</text><text x="300" y="316" font-size="11" fill="#666666" text-anchor="middle" font-weight="normal" font-style="italic">certain patterns fit. Their capacities 2, 8, 18 (=2n²) come from the rope's two strands × n² shapes.</text></svg>