<svg xmlns="http://www.w3.org/2000/svg" width="600" height="340" viewBox="0 0 600 340" font-family="Georgia, serif"><defs><marker id="ag" markerWidth="11" markerHeight="11" refX="8" refY="3.5" orient="auto"><path d="M0,0 L9,3.5 L0,7 Z" fill="#1F5C5C"/></marker></defs><rect width="600" height="340" fill="#FCFBF8"/><text x="300" y="34" font-size="19" fill="#1B3A5C" text-anchor="middle" font-weight="bold">Gravity — masses conditioning the shared ropes</text><text x="300" y="55" font-size="12" fill="#666666" text-anchor="middle" font-weight="normal">a mass is a source that tightens the surrounding network; another mass feels the pull</text><line x1="180" y1="200" x2="270.0" y2="200.0" stroke="#8A97A8" stroke-width="1.4"/><line x1="180" y1="200" x2="257.9" y2="235.0" stroke="#8A97A8" stroke-width="1.4"/><line x1="180" y1="200" x2="225.0" y2="260.6" stroke="#8A97A8" stroke-width="1.4"/><line x1="180" y1="200" x2="180.0" y2="270.0" stroke="#8A97A8" stroke-width="1.4"/><line x1="180" y1="200" x2="135.0" y2="260.6" stroke="#8A97A8" stroke-width="1.4"/><line x1="180" y1="200" x2="102.1" y2="235.0" stroke="#8A97A8" stroke-width="1.4"/><line x1="180" y1="200" x2="90.0" y2="200.0" stroke="#8A97A8" stroke-width="1.4"/><line x1="180" y1="200" x2="102.1" y2="165.0" stroke="#8A97A8" stroke-width="1.4"/><line x1="180" y1="200" x2="135.0" y2="139.4" stroke="#8A97A8" stroke-width="1.4"/><line x1="180" y1="200" x2="180.0" y2="130.0" stroke="#8A97A8" stroke-width="1.4"/><line x1="180" y1="200" x2="225.0" y2="139.4" stroke="#8A97A8" stroke-width="1.4"/><line x1="180" y1="200" x2="257.9" y2="165.0" stroke="#8A97A8" stroke-width="1.4"/><line x1="430" y1="200" x2="520.0" y2="200.0" stroke="#8A97A8" stroke-width="1.4"/><line x1="430" y1="200" x2="507.9" y2="235.0" stroke="#8A97A8" stroke-width="1.4"/><line x1="430" y1="200" x2="475.0" y2="260.6" stroke="#8A97A8" stroke-width="1.4"/><line x1="430" y1="200" x2="430.0" y2="270.0" stroke="#8A97A8" stroke-width="1.4"/><line x1="430" y1="200" x2="385.0" y2="260.6" stroke="#8A97A8" stroke-width="1.4"/><line x1="430" y1="200" x2="352.1" y2="235.0" stroke="#8A97A8" stroke-width="1.4"/><line x1="430" y1="200" x2="340.0" y2="200.0" stroke="#8A97A8" stroke-width="1.4"/><line x1="430" y1="200" x2="352.1" y2="165.0" stroke="#8A97A8" stroke-width="1.4"/><line x1="430" y1="200" x2="385.0" y2="139.4" stroke="#8A97A8" stroke-width="1.4"/><line x1="430" y1="200" x2="430.0" y2="130.0" stroke="#8A97A8" stroke-width="1.4"/><line x1="430" y1="200" x2="475.0" y2="139.4" stroke="#8A97A8" stroke-width="1.4"/><line x1="430" y1="200" x2="507.9" y2="165.0" stroke="#8A97A8" stroke-width="1.4"/><polyline points="206,200.0 209,196.7 212,193.8 215,191.8 218,191.0 221,191.5 224,193.2 227,195.9 230,199.1 233,202.5 236,205.6 239,207.8 242,208.9 245,208.7 248,207.3 251,204.9 254,201.7 257,198.3 260,195.1 263,192.7 266,191.3 269,191.1 272,192.2 275,194.4 278,197.5 281,200.9 284,204.1 287,206.8 290,208.5 293,209.0 296,208.2 299,206.2 302,203.3 305,200.0 308,196.7 311,193.8 314,191.8 317,191.0 320,191.5 323,193.2 326,195.9 329,199.1 332,202.5 335,205.6 338,207.8 341,208.9 344,208.7 347,207.3 350,204.9 353,201.7 356,198.3 359,195.1 362,192.7 365,191.3 368,191.1 371,192.2 374,194.4 377,197.5 380,200.9 383,204.1 386,206.8 389,208.5 392,209.0 395,208.2 398,206.2 401,203.3 404,200.0" fill="none" stroke="#1B3A5C" stroke-width="2.4"/><polyline points="206,200.0 209,203.3 212,206.2 215,208.2 218,209.0 221,208.5 224,206.8 227,204.1 230,200.9 233,197.5 236,194.4 239,192.2 242,191.1 245,191.3 248,192.7 251,195.1 254,198.3 257,201.7 260,204.9 263,207.3 266,208.7 269,208.9 272,207.8 275,205.6 278,202.5 281,199.1 284,195.9 287,193.2 290,191.5 293,191.0 296,191.8 299,193.8 302,196.7 305,200.0 308,203.3 311,206.2 314,208.2 317,209.0 320,208.5 323,206.8 326,204.1 329,200.9 332,197.5 335,194.4 338,192.2 341,191.1 344,191.3 347,192.7 350,195.1 353,198.3 356,201.7 359,204.9 362,207.3 365,208.7 368,208.9 371,207.8 374,205.6 377,202.5 380,199.1 383,195.9 386,193.2 389,191.5 392,191.0 395,191.8 398,193.8 401,196.7 404,200.0" fill="none" stroke="#B5651D" stroke-width="2.4"/><circle cx="180" cy="200" r="22" fill="#EDE4D0" stroke="#7B2D26" stroke-width="2.5"/><text x="180" y="205" font-size="12" fill="#1B3A5C" text-anchor="middle" font-weight="bold">mass</text><circle cx="430" cy="200" r="22" fill="#EDE4D0" stroke="#7B2D26" stroke-width="2.5"/><text x="430" y="205" font-size="12" fill="#1B3A5C" text-anchor="middle" font-weight="bold">mass</text><line x1="210" y1="240" x2="260" y2="240" stroke="#1F5C5C" stroke-width="2.4" marker-end="url(#ag)"/><line x1="400" y1="240" x2="350" y2="240" stroke="#1F5C5C" stroke-width="2.4" marker-end="url(#ag)"/><text x="300" y="160" font-size="11" fill="#666666" text-anchor="middle" font-weight="normal" font-style="italic">ropes under tension</text><text x="300" y="300" font-size="11" fill="#666666" text-anchor="middle" font-weight="normal" font-style="italic">The many ropes converging on each mass are drawn taut; the shared ropes between them</text><text x="300" y="316" font-size="11" fill="#666666" text-anchor="middle" font-weight="normal" font-style="italic">pull the masses together. Weak-field only — this reproduces Newton, not full general relativity.</text></svg>