<svg xmlns="http://www.w3.org/2000/svg" width="600" height="330" viewBox="0 0 600 330" font-family="Georgia, serif"><defs><marker id="ah" markerWidth="11" markerHeight="11" refX="8" refY="3.5" orient="auto"><path d="M0,0 L9,3.5 L0,7 Z" fill="#7B2D26"/></marker></defs><rect width="600" height="330" fill="#FCFBF8"/><text x="300" y="34" font-size="19" fill="#1B3A5C" text-anchor="middle" font-weight="bold">Heat — the jiggling of the ropes</text><text x="300" y="55" font-size="12" fill="#666666" text-anchor="middle" font-weight="normal">temperature is how vigorously the rope network vibrates; heat flows as that jiggle spreads</text><polyline points="60,155.7 64,152.9 68,148.7 72,150.8 76,149.9 80,151.5 84,152.8 88,150.6 92,152.5 96,152.6 100,157.2 104,160.8 108,161.9 112,160.8 116,162.3 120,160.1 124,157.4 128,155.9 132,157.3 136,156.9 140,152.0 144,152.4 148,146.5 152,148.1 156,150.0 160,152.5 164,153.8 168,152.8 172,155.6 176,154.6 180,156.2 184,160.0 188,161.8 192,164.7 196,163.5 200,160.1 204,155.3 208,154.5 212,154.4 216,153.1 220,152.7 224,151.4 228,147.2 232,146.6 236,149.4 240,150.9 244,154.6 248,155.7 252,157.3 256,159.1 260,156.4 264,160.8 268,161.1 272,160.8 276,162.5 280,158.4 284,156.6" fill="none" stroke="#1F5C5C" stroke-width="2"/><polyline points="60,182.6 64,180.1 68,180.3 72,179.5 76,181.9 80,179.6 84,178.9 88,178.7 92,180.7 96,182.3 100,185.6 104,190.2 108,190.3 112,192.0 116,188.4 120,188.3 124,187.3 128,188.3 132,189.4 136,186.2 140,181.4 144,181.0 148,178.1 152,180.0 156,182.0 160,183.6 164,181.1 168,183.7 172,183.9 176,185.4 180,186.8 184,193.0 188,193.0 192,191.8 196,188.3 200,186.3 204,184.8 208,186.7 212,185.8 216,184.6 220,180.0 224,176.9 228,178.5 232,178.9 236,181.1 240,184.1 244,185.3 248,185.8 252,187.3 256,189.0 260,189.0 264,191.5 268,192.3 272,190.4 276,189.1 280,186.4 284,183.1" fill="none" stroke="#1F5C5C" stroke-width="2"/><polyline points="60,212.5 64,214.3 68,210.9 72,210.8 76,208.9 80,207.4 84,208.2 88,209.3 92,213.5 96,215.0 100,220.0 104,221.0 108,220.2 112,220.1 116,219.9 120,222.2 124,223.2 128,221.7 132,219.2 136,214.4 140,212.6 144,207.7 148,209.1 152,211.9 156,212.1 160,211.4 164,210.9 168,212.4 172,211.7 176,214.7 180,220.2 184,222.0 188,223.3 192,221.7 196,219.2 200,218.8 204,216.6 208,218.9 212,217.8 216,211.1 220,209.5 224,208.9 228,207.3 232,211.2 236,211.6 240,211.5 244,212.5 248,213.4 252,216.2 256,218.0 260,221.8 264,221.5 268,222.7 272,219.8 276,218.7 280,216.6 284,212.9" fill="none" stroke="#1F5C5C" stroke-width="2"/><text x="172.5" y="255" font-size="13" fill="#1B3A5C" text-anchor="middle" font-weight="bold">cool — small jiggle</text><polyline points="315,142.4 319,133.6 323,130.7 327,136.3 331,148.9 335,168.9 339,158.9 343,153.8 347,154.0 351,154.1 355,157.2 359,170.9 363,167.5 367,158.1 371,161.1 375,138.4 379,134.8 383,142.3 387,167.1 391,174.7 395,168.6 399,156.8 403,146.1 407,133.8 411,135.1 415,148.6 419,164.6 423,157.2 427,144.4 431,155.9 435,142.6 439,146.4 443,161.6 447,167.5 451,169.0 455,164.6 459,138.5 463,148.9 467,143.9 471,148.5 475,166.2 479,159.4 483,133.5 487,131.2 491,147.5 495,159.5 499,171.5 503,157.6 507,156.1 511,163.6 515,139.3 519,137.6 523,155.9 527,173.8 531,170.7 535,173.3 539,163.0" fill="none" stroke="#B5651D" stroke-width="2"/><polyline points="315,161.8 319,166.9 323,176.3 327,175.7 331,193.8 335,178.3 339,169.2 343,176.9 347,176.7 351,186.0 355,200.6 359,198.8 363,204.3 367,190.2 371,189.0 375,168.3 379,190.6 383,197.5 387,197.3 391,181.9 395,181.5 399,158.2 403,168.1 407,175.9 411,187.1 415,205.3 419,190.1 423,187.2 427,185.5 431,167.8 435,195.3 439,199.7 443,197.8 447,196.4 451,190.6 455,176.6 459,175.6 463,177.6 467,203.8 471,193.4 475,193.4 479,180.2 483,159.4 487,168.6 491,178.1 495,184.7 499,185.3 503,192.5 507,178.7 511,176.1 515,179.8 519,186.1 523,202.6 527,202.0 531,194.8 535,169.8 539,167.5" fill="none" stroke="#B5651D" stroke-width="2"/><polyline points="315,193.4 319,198.5 323,225.6 327,221.4 331,205.6 335,197.1 339,207.2 343,209.0 347,211.4 351,233.9 355,236.0 359,236.7 363,211.5 367,201.1 371,199.5 375,227.9 379,223.2 383,227.1 387,232.7 391,200.2 395,188.1 399,207.3 403,196.8 407,221.2 411,222.3 415,203.5 419,197.5 423,209.1 427,206.0 431,215.9 435,232.6 439,240.6 443,231.3 447,209.7 451,220.4 455,207.9 459,219.6 463,238.9 467,231.0 471,214.1 475,204.1 479,208.0 483,186.7 487,202.6 491,208.5 495,234.2 499,224.0 503,220.5 507,197.1 511,215.7 515,231.3 519,234.0 523,222.4 527,216.0 531,218.1 535,213.6 539,195.8" fill="none" stroke="#B5651D" stroke-width="2"/><text x="427.5" y="255" font-size="13" fill="#1B3A5C" text-anchor="middle" font-weight="bold">hot — big jiggle</text><line x1="360" y1="95" x2="240" y2="95" stroke="#7B2D26" stroke-width="2.6" marker-end="url(#ah)"/><text x="300" y="88" font-size="11" fill="#7B2D26" text-anchor="middle" font-weight="normal">heat flows hot → cool</text><text x="300" y="290" font-size="11" fill="#666666" text-anchor="middle" font-weight="normal" font-style="italic">Nothing new is added for heat: it is the ordinary vibration of the ropes, and temperature</text><text x="300" y="306" font-size="11" fill="#666666" text-anchor="middle" font-weight="normal" font-style="italic">is simply how hard they shake. The same statistical laws come out as in standard thermodynamics.</text></svg>